<svg xmlns="http://www.w3.org/2000/svg" id="a3f12c09-8e82-4948-a300-d3a23113d6dc" data-name="Layer 1" width="1144" height="751.92352" viewBox="0 0 1144 751.92352" class="injected-svg gridItem__media" xmlns:xlink="http://www.w3.org/1999/xlink"><title>3333</title><polygon points="1111.983 428.056 904.837 604.443 859.514 643.032 732.687 642.258 624.449 641.6 615.459 641.547 593.494 615.748 506.164 513.186 462.326 461.696 449.145 446.22 439.61 435.019 418.361 410.063 383.958 369.662 418.802 339.995 452.079 311.657 475.999 291.291 777.168 34.846 1111.983 428.056" fill="#f2f2f2"></polygon><rect x="97" y="101.92352" width="397" height="287" fill="#3f3d56"></rect><rect x="579" y="694.92352" width="374" height="2" fill="#3f3d56"></rect><path d="M1161.92391,715.96176H862.57022s-6.068-88.99705,29.83423-90.00838,31.8569,39.44188,76.86109-16.18128,99.616-52.58916,106.69532-19.72093-13.653,59.1628,24.27192,51.07216S1192.76948,654.27062,1161.92391,715.96176Z" transform="translate(-28 -74.03824)" fill="#8e24aa"></path><path d="M1007.19387,715.982l-1.01034-.04049c2.35623-58.59492,14.628-96.24277,24.50772-117.50687,10.72711-23.089,21.0641-32.4359,21.16731-32.52774l.67208.75578c-.10172.09086-10.31823,9.34492-20.95942,32.27762C1021.74606,620.11453,1009.54146,657.60782,1007.19387,715.982Z" transform="translate(-28 -74.03824)" fill="#f2f2f2"></path><path d="M1115.53754,716.103l-.97084-.28246c11.69054-40.1263,39.22015-65.46091,39.49718-65.71226l.67949.74862C1154.46881,651.10627,1127.14512,676.26162,1115.53754,716.103Z" transform="translate(-28 -74.03824)" fill="#f2f2f2"></path><path d="M909.71978,716.03139l-1.00195-.13926c3.96631-28.60563-3.19818-50.79958-9.90714-64.38044-7.26424-14.70478-15.55265-22.73616-15.63561-22.81567l.69973-.72985c.0842.08049,8.50075,8.23532,15.84253,23.09763C906.489,664.77206,913.72139,687.17095,909.71978,716.03139Z" transform="translate(-28 -74.03824)" fill="#f2f2f2"></path><rect x="43" y="641.92352" width="1101" height="2" fill="#3f3d56"></rect><path d="M621,824.96176H29s-12-176,59-178,63,78,152-32,197-104,211-39-27,117,48,101S682,702.96176,621,824.96176Z" transform="translate(-28 -74.03824)" fill="#8e24aa"></path><path d="M315.00684,825.0018l-1.99805-.08008c4.65967-115.877,28.92822-190.3291,48.46631-232.38086,21.21386-45.66064,41.65625-64.145,41.86035-64.32666l1.3291,1.49463c-.20117.17969-20.40527,18.48047-41.44922,63.832C343.78516,635.41488,319.64941,709.56137,315.00684,825.0018Z" transform="translate(-28 -74.03824)" fill="#f2f2f2"></path><path d="M529.2666,825.24106l-1.91992-.5586c23.11914-79.35351,77.56152-129.45508,78.10937-129.95215l1.34375,1.48047C606.25684,696.704,552.22168,746.451,529.2666,825.24106Z" transform="translate(-28 -74.03824)" fill="#f2f2f2"></path><path d="M122.24268,825.09945l-1.98145-.27539c7.84375-56.57031-6.32471-100.46093-19.59228-127.31836-14.36573-29.08007-30.75684-44.96289-30.9209-45.12011l1.38379-1.44336c.1665.15918,16.811,16.28613,31.33007,45.67773C115.85352,723.72934,130.15625,768.02523,122.24268,825.09945Z" transform="translate(-28 -74.03824)" fill="#f2f2f2"></path><rect y="749.92352" width="837" height="2" fill="#3f3d56"></rect><path d="M593,463.96176H124v-372H593Zm-467-2H591v-368H126Z" transform="translate(-28 -74.03824)" fill="#3f3d56"></path><circle cx="137" cy="170.92352" r="17" fill="#8e24aa"></circle><circle cx="185" cy="170.92352" r="17" fill="#d0cde1"></circle><circle cx="233" cy="170.92352" r="17" fill="#8e24aa" opacity="0.5"></circle><circle cx="281" cy="170.92352" r="17" fill="#f2f2f2"></circle><rect x="330" y="162.92352" width="140" height="16" fill="#f2f2f2"></rect><circle cx="287.99999" cy="283.92352" r="46" fill="#f2f2f2"></circle><path d="M316.1914,371.81039l-23.02-23.02a4.00026,4.00026,0,0,1,5.65723-5.65722l16.98,16.98,54.18408-61.78858a3.99986,3.99986,0,1,1,6.01465,5.27442Z" transform="translate(-28 -74.03824)" fill="#8e24aa"></path></svg>